<svg id="Layer_1" data-name="Layer 1" xmlns="http://www.w3.org/2000/svg" width="103.2774" height="30.0485" viewBox="0 0 103.2774 30.0485"><defs><style>.cls-1{isolation:isolate;}.cls-2{fill:#fff;}.cls-3{fill:none;stroke:#fff;stroke-miterlimit:10;}</style></defs><title>logo</title><rect width="103.2774" height="30.0485"/><g class="cls-1"><path class="cls-2" d="M48.6045,19.1318a5.61,5.61,0,0,0,4.2939,2.0889c2.4331,0,3.21-1.4072,3.21-2.5283,0-1.76-1.6563-2.2432-3.4556-2.77-2.1875-.6157-4.6206-1.2754-4.6206-4.1558,0-2.4189,2.0034-4.0679,4.6822-4.0679A6.1858,6.1858,0,0,1,57.56,9.7432l-1.022,1.3413a5.0435,5.0435,0,0,0-3.9463-1.7593c-1.6357,0-2.8013.9453-2.8013,2.3306,0,1.4736,1.5742,1.913,3.3125,2.4189,2.2285.6377,4.7637,1.3853,4.7637,4.4634,0,2.1328-1.3491,4.31-5.03,4.31a6.5394,6.5394,0,0,1-5.2344-2.33Z" transform="translate(-0.2336)"/></g><g class="cls-1"><path class="cls-2" d="M65.1089,9.5449h-5.103V7.918H72.2437V9.5449H67.1162V22.584H65.1089Z" transform="translate(-0.2336)"/></g><g class="cls-1"><path class="cls-2" d="M75.0806,7.918h8.7417V9.5449H76.7407v4.7276h6.9414v1.6269H76.7407V20.957h7.0816v1.627H75.0806Z" transform="translate(-0.2336)"/></g><g class="cls-1"><path class="cls-2" d="M87.0815,7.918H92.5a4.1246,4.1246,0,0,1,4.2256,4.4194A4.1475,4.1475,0,0,1,92.5,16.7568H88.76V22.584H87.0815Zm5.2164,1.6269H88.76V15.13h3.5381a2.6132,2.6132,0,0,0,2.6894-2.7925A2.6135,2.6135,0,0,0,92.2979,9.5449Z" transform="translate(-0.2336)"/></g><g class="cls-1"><path class="cls-2" d="M7.6045,7.918H14.001c2.2339,0,3.3,1.8911,3.3,3.7378,0,1.8252-.8628,3.0566-1.9287,3.3642,1.2011.2422,2.1489,1.7368,2.1489,3.5845,0,2.1328-1.1,3.9795-3.3169,3.9795h-6.6Zm5.7368,5.6728c.5923,0,.9985-.55.9985-1.2754s-.4062-1.2529-.9985-1.2529H10.5151v2.5283Zm.1016,5.8487c.6938,0,1.1167-.55,1.1167-1.3409,0-.748-.4063-1.3857-1.1167-1.3857H10.5151V19.44Z" transform="translate(-0.2336)"/></g><g class="cls-1"><path class="cls-2" d="M21.2056,7.918h3.3388V22.584H21.2056Z" transform="translate(-0.2336)"/></g><g class="cls-1"><path class="cls-2" d="M34.9961,7.6763a6.2972,6.2972,0,0,1,5.6435,3.21l-2.4125,1.4073a3.809,3.809,0,0,0-3.231-1.8467c-2.4741,0-4.273,2.0449-4.273,4.8154s1.7989,4.8149,4.273,4.8149a4.42,4.42,0,0,0,2.9443-1.121V17.1748H34.3013V14.4922h6.5019V20.1A7.3529,7.3529,0,0,1,34.9961,22.87c-3.9868,0-7.2583-2.99-7.2583-7.6079C27.7378,10.6226,31.0093,7.6763,34.9961,7.6763Z" transform="translate(-0.2336)"/></g><rect class="cls-3" x="3.5554" y="3.995" width="95.8513" height="22.4408"/></svg>